<?xml version="1.0" encoding="UTF-8"?>
<svg id="Layer_2" data-name="Layer 2" xmlns="http://www.w3.org/2000/svg" xmlns:xlink="http://www.w3.org/1999/xlink" viewBox="0 0 35.65 33.42">
  <defs>
    <style>
      .cls-1 {
        fill: #ccc;
      }

      .cls-1, .cls-2, .cls-3, .cls-4, .cls-5, .cls-6, .cls-7, .cls-8, .cls-9, .cls-10, .cls-11 {
        stroke-width: 0px;
      }

      .cls-2 {
        fill: #b3b3b3;
      }

      .cls-3 {
        fill: none;
      }

      .cls-4 {
        fill: #662d91;
      }

      .cls-5 {
        fill: #666;
      }

      .cls-6 {
        fill: #e6e6e6;
      }

      .cls-7 {
        fill: #999;
      }

      .cls-8 {
        fill: gray;
      }

      .cls-9 {
        fill: #0a0f12;
      }

      .cls-10 {
        fill: #bdccd4;
      }

      .cls-12 {
        clip-path: url(#clippath);
      }

      .cls-11 {
        fill: #fff;
      }
    </style>
    <clipPath id="clippath">
      <path class="cls-3" d="M23.75,15.46c.8,1.65,1.25,3.5,1.25,5.45,0,6.9-5.6,12.5-12.5,12.5S0,27.82,0,20.92s5.6-12.5,12.5-12.5c4.95,0,9.22,2.88,11.25,7.05"/>
    </clipPath>
  </defs>
  <g id="Layer_2-2" data-name="Layer 2">
    <g id="Loop">
      <g>
        <g>
          <path class="cls-11" d="M32.64,18.06c-2.09,0-4.17-.13-6.25-.28-.17-.03,0-.35.04-.5v.1c2.63.14,3.94.04,6.57.03.1-.14,1.08.09,1.14,0,.09.04.59.24.62.25l-.13.06"/>
          <path class="cls-2" d="M29.43,13.58c-.24.18-.32.12-.19.3.07.09,1.49,1.31,1.71,1.48.24.19.28.12.29.13.01.01-.04.05.05.12.83.63,1.69,1.21,2.62,1.66.01,0,0,.05.22.14-.06.09.28.06.18.2-2.63.02-5.27-.08-7.89-.22v-.1c.44-1.81.98-3.6,1.36-5.43.53.59,1.01,1.22,1.63,1.71Z"/>
        </g>
        <g>
          <path class="cls-2" d="M28.18.03c2.59.2,5.07,1.45,6.39,3.77,2.48,4.36.36,8.89-3.32,11.69-.01,0-.06.06-.29-.13-.22-.18-1.64-1.39-1.71-1.48-.13-.18-.05-.12.19-.3.32-.23.67-.41,1-.63.14.08,1.09.63,1.16.61,1.87-1.66,3.14-4.11,3.1-6.64-.04-3.52-3.16-6.49-6.6-6.75l.1-.14Z"/>
          <path class="cls-2" d="M24.07,3.87q.34-.69.69-1.39c-.02-.13-.21-.1-.25-.11-.05.03-.03.09-.06.14-.29.69-.66,1.35-.87,2.08-.08-.18-.19-.3-.19-.31-.03.02-.1.07-.12.09-1.02,1.17-1.3,2.6-1.16,4.11,0,.09.05.15.05.22,0-.21.36.06.73.08-.79-3.52,2.69-6.16,6-5.49,1.37.28,2.84,1.19,3.43,2.48-1.33-3.48-5.46-4.34-8.26-1.91Z"/>
          <g>
            <path class="cls-4" d="M28.09.17l.1-.14c-2.24-.17-3.88.39-5.69,1.7.64.24,1.39.37,2.02.64.04.02.23-.02.25.11q-.34.69-.69,1.39c2.8-2.43,6.94-1.57,8.26,1.91,1,2.17-.41,5.7-2.53,6.77-.09.11.33.24.63.4.14.08,1.09.63,1.16.61,1.87-1.66,3.14-4.11,3.1-6.64-.04-3.52-3.16-6.49-6.6-6.75Z"/>
            <path class="cls-4" d="M22.49,1.73c.64.24,1.39.37,2.02.64-.05.03-.03.09-.06.14-.67-.33-1.42-.49-2.13-.71.03-.1.07,0,.17-.07Z"/>
            <path class="cls-2" d="M24.56,1.52c3.88-1.82,8.91.54,9.72,4.83.06.32.24,2.33-.3,1.88.8-4.84-4.7-8.37-8.99-6.53.1.81-.53-.08-.43-.17Z"/>
          </g>
          <g>
            <path class="cls-2" d="M19.76,7.34l.06-.28c.22.1.46.17.69.26.17-1.74.74-3.16,2.19-4.2q-.21-.48-.42-.97c-2.43,1.94-2.82,4.4-2.81,7.36l1.71-1.61q-.71-.28-1.41-.56Z"/>
            <path class="cls-2" d="M21.32,8.47c.29.06.56.24.85.31,0,0,.02.02,0-.08,0-.06-.05-.13-.05-.22-.45-.09-.28-.24-.29-.31-.46-.03-.44-.39-.76.25.18-.03.19.03.26.05Z"/>
            <path class="cls-2" d="M21.82,8.17c.02.07-.15.22.29.31-.14-1.51.14-2.95,1.16-4.11q-.21-.48-.42-.97c-1.21.76-2.02,2.63-2.02,4.05.13.05.95.38.98.43,0,.01-.03.09,0,.29Z"/>
            <g>
              <path class="cls-2" d="M24.46,2.51c-.29.69-.66,1.35-.87,2.08-.08-.18-.19-.3-.19-.31-.14-.31-.21-.68-.39-.98.25-.12.36-.19.62-.07.03-.05-.24-.61-.31-.62-.15.41-.29.32-.47.44-.1-.35-.33-.66-.47-.99-.03-.08-.1-.16-.07-.25.71.22,1.46.38,2.13.71Z"/>
              <path class="cls-2" d="M22.39,2.05c.14.33.36.64.47.99-.14.09-.16.07-.17.07l-.42-.97s.08-.07.12-.09Z"/>
              <path class="cls-2" d="M23.39,4.28s-.1.07-.12.09l-.42-.97c.08-.05.14-.1.15-.11.18.3.24.67.39.98Z"/>
            </g>
            <g>
              <path class="cls-2" d="M19.97,9.21c.08-.07.16-.12.24-.18.04-.03.38-.52.85-.61.33-.64.3-.28.76-.25-.04-.21,0-.28,0-.29-.03-.05-.85-.38-.98-.43-.11-.04-.23-.09-.34-.13-.23-.09-.46-.16-.69-.26l-.06.28q.71.28,1.41.56l-1.71,1.61c-.14.29.34-.16.51-.3Z"/>
              <path class="cls-2" d="M23.01,3.3s-.07.06-.15.11c-1.21.76-2.02,2.63-2.02,4.05-.11-.04-.23-.09-.34-.13.17-1.74.74-3.16,2.19-4.2,0,0,.03.02.17-.07.17-.12.31-.03.47-.44.06.01.33.57.31.62-.26-.12-.37-.05-.62.07Z"/>
            </g>
          </g>
        </g>
      </g>
    </g>
    <g class="cls-12">
      <g>
        <path class="cls-5" d="M3.7,31.46c.09.08.2.17.29.25.15.12.35.21.46.38.62.42,1.22.83,1.89,1.18.13.07.12.08.13.08.33.16.86.35,1.22.5l1.31.57c.06,0,.51.05.53.06l.08-.13c0-.05.01-.11.02-.16-2.48-.46-4.71-1.62-6.49-3.27.17.18.34.35.55.54Z"/>
        <path class="cls-5" d="M4.28,10.98s-.01-.01-.01-.01c-.1-.08-.19.03-.19-.04-1.43,1.06-2.72,2.65-3.57,4.22-1.41,2.61-1.86,5.28-1.36,8.15-.09-.61-.15-1.23-.15-1.87,0-4.28,2.08-8.07,5.28-10.44Z"/>
        <path class="cls-5" d="M9.95,32.13s0-.32,0-.34l-.1.29C3.78,30.92-.04,24.11,1.81,18.27c.17-.55.96-2.69,1.51-2.35.67-1.08,1.59-2.04,2.56-2.86-.23-.32-1.45-1.93-1.6-2.09-3.2,2.37-5.28,6.16-5.28,10.44,0,.64.06,1.26.15,1.87.04.24.08.49.14.74.42,1.81,1.26,3.49,2.27,5.04.5.53.91,1.15,1.59,1.85,1.77,1.65,4,2.82,6.49,3.27.03-.53.08-1.06.15-1.58,0-.03.16-.45.17-.48Z"/>
        <g>
          <path class="cls-7" d="M12.13,8.42c-.02-.19-.05-.41-.08-.69-3.02.13-5.35,1.34-7.73,3.07.03.03.05.06.08.08,2.14-1.54,4.75-2.46,7.59-2.46.04,0,.09,0,.13,0Z"/>
          <path class="cls-7" d="M6.13,12.81s.06.04.08.04c1.69-1.3,4-2.11,6.13-2.14l.04-.04c-.14-1.19-.16-1.43-.26-2.25-.04,0-.09,0-.13,0-2.84,0-5.45.92-7.59,2.46.64.58,1.11,1.34,1.72,1.93Z"/>
          <path class="cls-1" d="M26.16,19.45s.05.08.08.46c.06-1.75-1.09-4.37-2.06-5.86-.46-.71-1.71-2.26-2.33-2.79-.95-.63-1.85-1.38-2.86-1.93-.51-.28-1.93-.89-2.56-1.01,0-.13-.3-.07-.34-.08,0,0-.03-.1-.13-.13-.34-.09-1.52-.39-1.62-.25.21.03,1.58.29,1.64.4.02.04-.01.36-.07.77,1.78.56,3.38,1.51,4.74,2.73.18-.18.4-.39.72-.7,2.46,2.04,4.35,5.22,4.77,8.4Z"/>
          <path class="cls-1" d="M15.62,11.09v.04c1.3.36,2.51,1.09,3.61,1.85.07.05.12.04.13.04.69-.67.92-.89,1.31-1.27-1.36-1.22-2.96-2.16-4.74-2.73-.1.76-.28,1.84-.31,2.07Z"/>
          <path class="cls-5" d="M16,8.26c-.06-.11-1.43-.37-1.64-.4-.69-.1-1.62-.16-2.31-.13.03.28.06.5.08.69,1.32.01,2.6.22,3.8.6.06-.4.09-.73.07-.77Z"/>
          <path class="cls-5" d="M15.62,11.09c.03-.23.2-1.31.31-2.07-1.2-.38-2.48-.59-3.8-.6.09.82.12,1.06.26,2.25,1.09-.04,2.18.13,3.23.42Z"/>
        </g>
        <path class="cls-5" d="M4.33,10.8s-.12.03-.25.13c0,.07.09-.04.19.04,0,0,0,.01.01.01.04-.03.09-.07.13-.1-.03-.03-.05-.06-.08-.08Z"/>
        <path class="cls-5" d="M6.13,12.81c-.61-.6-1.08-1.36-1.72-1.93-.05.03-.09.07-.13.1.16.15,1.38,1.77,1.6,2.09.12-.1.27-.19.25-.25Z"/>
        <path class="cls-5" d="M9.91,31.75c-5.36-1.07-9.12-6.94-7.98-12.24-.05-.22.09-1.02.29-.88-.03.04-.08.19-.08.23.11.21.44-.46.17-.59-.19.49-.13.24-.04-.08-.25-.46-.23.09-.46.08-1.85,5.84,1.97,12.65,8.04,13.82l.1-.29s0-.05-.04-.04Z"/>
        <path class="cls-5" d="M1.81,18.27c.23,0,.21-.54.46-.08.05-.19.14-.36.21-.55.23-.59.51-1.18.84-1.72-.55-.34-1.34,1.8-1.51,2.35Z"/>
        <path class="cls-2" d="M5.88,13.06c-.98.81-1.89,1.77-2.56,2.86-.33.54-.61,1.13-.84,1.72l.04.04c.75-1.84,2.11-3.61,3.7-4.83-.02,0-.08-.04-.08-.04.02.06-.13.15-.25.25Z"/>
        <path class="cls-6" d="M23.69,20.41c-.04-2.7-2.17-5.87-4.33-7.39,0,0-.06,0-.13-.04-.32.39-1.79,1.81-1.93,2.06-.11.19-.23.75-.17.94.1.3,2.54,1.82,2.73,5.52.83-.01,2.72.01,3.32-.04.45-.04.52.1.5-1.05Z"/>
        <g>
          <path class="cls-1" d="M26.25,19.91c-.03-.38-.08-.44-.08-.46-.6-.52-.98-.36-1.33-.02.1.65.17,1.31.17,1.99,0,3.39-1.31,6.47-3.44,8.78.11.12.24.25.4.42,1.06-1.02,1.84-1.99,2.56-3.28,1.31-2.32,1.95-4.76,1.72-7.43Z"/>
          <path class="cls-1" d="M24.83,19.42c-.34.32-.66.79-1.15.99.02,1.15-.05,1.01-.5,1.05.08,1.95-.54,3.84-1.6,5.46-.36.55-.76,1.01-1.18,1.51-.01.02-.1.21-.21.34.72.76.86.9,1.37,1.43,2.13-2.31,3.44-5.39,3.44-8.78,0-.68-.07-1.34-.17-1.99Z"/>
          <path class="cls-6" d="M26.16,19.45c-.42-3.18-2.31-6.36-4.77-8.4-.32.31-.54.52-.72.7,2.18,1.96,3.69,4.64,4.16,7.67.35-.33.73-.49,1.33.02Z"/>
          <path class="cls-6" d="M20.67,11.75c-.39.38-.62.6-1.31,1.27,2.16,1.52,4.29,4.69,4.33,7.39.49-.2.81-.67,1.15-.99-.47-3.03-1.98-5.71-4.16-7.67Z"/>
        </g>
        <path class="cls-1" d="M19.86,21.5s-.03,0-.04,0c.13.97-.08,2.1-.42,3.02,1.03.35,1.91,1.35,2.18,2.39,1.06-1.62,1.68-3.51,1.6-5.46-.6.06-2.48.03-3.32.04Z"/>
        <path class="cls-4" d="M6.22,12.85c-1.58,1.22-2.95,2.99-3.7,4.83-.08.19-.13.39-.21.59.27.13-.06.8-.17.59-.03.2-.06.39-.08.59.33.31.19-.45.31-.46.15-.02-.02.88.8.42.06-.03-.1-.34.42-.13.22-.34.6-.68.78-.9.01-.02.11-.36.13-.38.03-.04.12-.01.13-.02.29-.37,1.04-1.63,1.39-1.3.26-.32.55-.59.84-.88,1.59-1.56,3.36-2.44,5.63-2.44,0-.88,0-1.77-.13-2.65-2.14.03-4.44.84-6.13,2.14Z"/>
        <path class="cls-10" d="M12.35,10.71c.97-.01,2.34.16,3.28.42v-.04c-1.05-.29-2.14-.46-3.23-.42l-.04.04Z"/>
        <path class="cls-5" d="M12.35,10.71c.12.88.13,1.76.13,2.65,1.82,0,3.36.64,4.83,1.68.14-.25,1.61-1.67,1.93-2.06-1.1-.76-2.31-1.49-3.61-1.85-.94-.26-2.31-.43-3.28-.42Z"/>
        <path class="cls-5" d="M2.69,25.3c-.85-2.06-.95-3.67-.63-5.86.03-.2.06-.39.08-.59,0-.04.05-.19.08-.23-.2-.14-.35.67-.29.88-1.14,5.3,2.62,11.17,7.98,12.24l.08-.08s0-.08,0-.13c-.19-.06-.39-.08-.59-.13-3.09-.79-5.51-3.21-6.72-6.11Z"/>
        <path class="cls-8" d="M2.27,18.19c-.09.32-.15.57.04.08.08-.19.13-.39.21-.59l-.04-.04c-.07.19-.16.35-.21.55Z"/>
        <path class="cls-1" d="M17.13,15.98c-.07-.19.06-.75.17-.94-1.47-1.04-3.01-1.68-4.83-1.68-2.26,0-4.03.88-5.63,2.44.46,0,2.9.04,3.04,0,.09-.02.64-.82.92-.88,1.22-.27,3.42,1.9,2.92,3.23,1.57.23,2.75,1.81,2.65,3.36,1.15-.02,2.3.02,3.44,0,.01,0,.03,0,.04,0-.19-3.7-2.63-5.22-2.73-5.52Z"/>
        <path class="cls-9" d="M4.45,19.7c.29-1.12.83-2.12,1.55-3.02-.35-.33-1.09.94-1.39,1.3-2.64,5.35-.21,10.71,5.5,12.28-.17,1.2,0,1.24-.71,1.15.19.05.4.06.59.13,0-.07.22-1.11.25-1.3.04-.24.09-.48.13-.71-.91-.17-1.71-.55-2.48-1.05-3-1.94-4.33-5.31-3.44-8.78Z"/>
        <path class="cls-4" d="M14.4,29.27c-.12.02-.26.05-.38.08-1.17.36-2.45.39-3.65.17-.03.24-.08.48-.13.71,1.35.33,2.6,1.01,4.01,1.09.06-.04-.13-1.18-.15-1.34-.05-.61-.21-.44.29-.71Z"/>
        <g>
          <g>
            <path class="cls-4" d="M12,34.42s1.69.32,1.92.32c.04,0,.7-.24.82-.13.68-.16,1.82-.6,2.48-.88.83-.36,1.59-.86,2.39-1.26.13-.06.23-.17.38-.21.58-.47,1.22-.88,1.76-1.39.07-.07.14-.18.21-.25-.16-.17-.29-.3-.4-.42-2.38,2.59-5.78,4.22-9.56,4.22Z"/>
            <path class="cls-4" d="M21.56,30.2c-.51-.53-.64-.67-1.37-1.43-2.67,3.03-6.34,3.87-10.25,3.36,0,.03-.16.46-.17.48-.07.52-.12,1.05-.15,1.58.77.14,1.56.23,2.37.23,3.79,0,7.19-1.63,9.56-4.22Z"/>
            <path class="cls-6" d="M10.06,31.79l-.06-.13-.08.08s.04.02.04.04c0,.02,0,.32,0,.34,3.91.51,7.58-.33,10.25-3.36.11-.12.2-.32.21-.34-.51.31-.95.87-1.45,1.26-2.5,1.94-5.81,2.62-8.9,2.1Z"/>
          </g>
          <g>
            <path class="cls-5" d="M19.4,24.53c-.25.68-.7,1.44-1.13,2.02-.07.36-.63.76-.88,1.07-.02.03-.2.43-.38.63-.77.88-1.73,1.52-2.9,1.74.01.16.2,1.31.15,1.34-1.41-.08-2.66-.76-4.01-1.09-.03.19-.25,1.24-.25,1.3,0,.04,0,.08,0,.13l.06.13c3.09.52,6.41-.16,8.9-2.1.5-.39.94-.95,1.45-1.26.42-.5.82-.96,1.18-1.51-.27-1.05-1.15-2.04-2.18-2.39Z"/>
            <path class="cls-8" d="M14.4,29.27c-.5.27-.34.11-.29.71,1.17-.22,2.12-.86,2.9-1.74.18-.2.35-.6.38-.63.26-.31.81-.71.88-1.07-1.39,1.85-2.49,1.99-3.86,2.73Z"/>
          </g>
        </g>
        <path class="cls-4" d="M4.62,17.98s-.09-.02-.13.02c-.01.02-.11.36-.13.38-.18.23-.56.56-.78.9-.52-.22-.36.09-.42.13-.82.46-.64-.44-.8-.42-.13.01.01.77-.31.46-.32,2.18-.22,3.8.63,5.86,1.2,2.9,3.63,5.32,6.72,6.11.71.08.54.04.71-1.15-5.71-1.57-8.14-6.93-5.5-12.28Z"/>
        <path class="cls-6" d="M13.73,18.15c-.05,0-.11,0-.17,0,0,.1-.25.43-.29.46,1.6.32,2.49,1.33,2.81,2.9.1,0,.2,0,.29,0,.11-1.55-1.08-3.13-2.65-3.36Z"/>
        <g>
          <path class="cls-6" d="M16.38,21.5c-.1,0-.2,0-.29,0-.71.01-2.01-.07-2.58.21-.46.23-2.2,2.12-2.71,2.65-.07.08-.14.18-.21.25.59.62,2.07.73,2.39,1.15.29.39.84,2.94,1.05,3.59.12-.04.26-.06.38-.08,1.37-.74,2.47-.88,3.86-2.73.44-.58.88-1.34,1.13-2.02.34-.92.55-2.05.42-3.02-1.15.02-2.3-.02-3.44,0Z"/>
          <path class="cls-1" d="M10.58,24.61c-.23.24-.52.46-.76.71-.05.06-.12.11-.17.17-.8.87-1.68,1.73-1.76,2.98.77.5,1.57.88,2.48,1.05,1.2.22,2.48.2,3.65-.17-.21-.65-.76-3.2-1.05-3.59-.33-.43-1.8-.54-2.39-1.15Z"/>
        </g>
        <g>
          <path class="cls-7" d="M10.81,14.91c-.28.06-.84.86-.92.88-.15.04-2.58,0-3.04,0-.29.29-.58.56-.84.88-.72.9-1.27,1.91-1.55,3.02,1.45-.57,3.01.41,3.78,1.64.02-.05.54-.82.65-.88.13-.07.66-.13.69-.13.27-.88.98-1.49,1.81-1.85.74-.32,1.38-.42,2.18-.34.05,0,.11,0,.17,0,.5-1.33-1.7-3.5-2.92-3.23Z"/>
          <path class="cls-8" d="M8.36,23.5c-.14-.63-.34-1.53-.13-2.16-.77-1.23-2.32-2.2-3.78-1.64-.89,3.47.44,6.84,3.44,8.78.09-1.25.96-2.11,1.76-2.98-.58-.54-.95-1.24-1.22-1.97,0,0-.07.02-.08-.02Z"/>
          <path class="cls-8" d="M9.58,20.33s.24.31.31.29c.09-.02.57-1.18,1.2-1.34.11-.1.27-.14.38-.25.14-.16.11-.22-.08-.55-.82.35-1.54.96-1.81,1.85Z"/>
          <path class="cls-8" d="M11.38,18.48c.19.33.23.38.08.55.79-.39,1.66-.31,1.74-.34.03,0,0-.04.06-.08.04-.03.29-.36.29-.46-.81-.08-1.44.02-2.18.34Z"/>
          <g>
            <path class="cls-8" d="M9.89,20.62c-.08.02-.29-.29-.31-.29-.03,0-.56.06-.69.13-.11.06-.63.83-.65.88-.21.63-.01,1.53.13,2.16.01.04.08.02.08.02.42.63.79,1.31,1.39,1.81.24-.25.52-.47.76-.71.07-.08.14-.18.21-.25-1.44-1.74-1.41-3.54.29-5.08-.63.16-1.1,1.33-1.2,1.34Z"/>
            <path class="cls-8" d="M8.44,23.52c.27.74.64,1.43,1.22,1.97.05-.06.11-.11.17-.17-.59-.5-.96-1.17-1.39-1.81Z"/>
          </g>
        </g>
      </g>
    </g>
  </g>
</svg>